<svg width="620" height="200" version="1.1" xmlns="http://www.w3.org/2000/svg" xmlns:xlink="http://www.w3.org/1999/xlink" style="enable-background:new 0 0 652 652;" xml:space="preserve"><rect id="backgroundrect" width="100%" height="100%" x="0" y="0" fill="none" stroke="none" style="" class=""/>
<style type="text/css">
	.st0{fill:#A60000;}
</style>


<g class="currentLayer" style=""><title>Layer 1</title><g id="svg_1" class="">
	<g id="svg_2">
		<g id="svg_3">
			<path class="st0" d="M18.254743576049805,143.12999421358109 c0.29781684279441833,-5.158693790435791 0.5956336855888367,-12.844093322753906 0.5956336855888367,-19.581979751586914 v-91.80368041992188 h12.905396461486816 v47.69158935546875 h0.29781684279441833 c4.566524982452393,-8.422356605529785 12.905396461486816,-14.002167701721191 24.420982360839844,-14.002167701721191 c17.769737243652344,0 30.377317428588867,15.686638832092285 30.178773880004883,38.74283981323242 c0,27.162099838256836 -16.082109451293945,40.63786697387695 -32.064945220947266,40.63786697387695 c-10.32431697845459,0 -18.663188934326172,-4.211178302764893 -23.924619674682617,-14.31800651550293 h-0.3970891237258911 L29.472509384155273,143.12999421358109 L18.254743576049805,143.12999421358109 L18.254743576049805,143.12999421358109 zM31.755775451660156,112.70422822237015 c0,1.6844713687896729 0.29781684279441833,3.47422194480896 0.5956336855888367,5.053414344787598 c2.481806993484497,9.58043098449707 10.026500701904297,16.107757568359375 19.556640625,16.107757568359375 c13.600302696228027,0 21.740629196166992,-11.791298866271973 21.740629196166992,-29.16240882873535 c0,-15.265522003173828 -7.44542121887207,-28.214893341064453 -21.34354019165039,-28.214893341064453 c-8.835232734680176,0 -17.174104690551758,6.422046661376953 -19.854455947875977,16.949993133544922 c-0.29781684279441833,1.57919180393219 -0.6949059367179871,3.47422194480896 -0.6949059367179871,5.6850905418396 L31.755775451660156,112.70422822237015 L31.755775451660156,112.70422822237015 z" id="svg_4"/>
			<path class="st0" d="M142.74217224121094,143.12999421358109 l-0.9927228093147278,-9.58043098449707 h-0.3970891237258911 c-3.970891237258911,6.00092887878418 -11.714129447937012,11.264901161193848 -21.93917465209961,11.264901161193848 c-14.493753433227539,0 -21.93917465209961,-10.843783378601074 -21.93917465209961,-21.792848587036133 c0,-18.31862449645996 15.387203216552734,-28.425453186035156 43.084171295166016,-28.214893341064453 V93.22752839326859 c0,-6.31676721572876 -1.5883564949035645,-17.581668853759766 -16.28065299987793,-17.581668853759766 c-6.651242733001709,0 -13.600302696228027,2.2108685970306396 -18.663188934326172,5.6850905418396 l-2.978168487548828,-9.054033279418945 c5.956336975097656,-4.105898857116699 14.493753433227539,-6.737885475158691 23.527530670166016,-6.737885475158691 c21.93917465209961,0 27.200605392456055,15.897198677062988 27.200605392456055,31.05743980407715 v28.425453186035156 c0,6.632606029510498 0.29781684279441833,13.054652214050293 1.1912673711776733,18.21334457397461 L142.74217224121094,143.12999421358109 L142.74217224121094,143.12999421358109 zM140.75672912597656,104.38715821504593 c-14.19593620300293,-0.31583839654922485 -30.278045654296875,2.316148042678833 -30.278045654296875,17.055273056030273 c0,8.948753356933594 5.658519744873047,13.159932136535645 12.309762001037598,13.159932136535645 c9.331594467163086,0 15.188658714294434,-6.31676721572876 17.27337646484375,-12.738814353942871 c0.3970891237258911,-1.3686327934265137 0.6949059367179871,-2.947824716567993 0.6949059367179871,-4.421737194061279 V104.38715821504593 z" id="svg_5"/>
			<path class="st0" d="M174.41001892089844,31.744332134723663 h13.004669189453125 v111.38566589355469 H174.41001892089844 V31.744332134723663 z" id="svg_6"/>
			<path class="st0" d="M207.56695556640625,129.02254182100296 c3.8716189861297607,2.631986379623413 10.6221342086792,5.474531173706055 17.174104690551758,5.474531173706055 c9.430866241455078,0 13.89811897277832,-5.053414344787598 13.89811897277832,-11.264901161193848 c0,-6.632606029510498 -3.67307448387146,-10.21210765838623 -13.302485466003418,-14.002167701721191 c-12.905396461486816,-4.842854976654053 -18.96100616455078,-12.422975540161133 -18.96100616455078,-21.477006912231445 c0,-12.212416648864746 9.331594467163086,-22.319244384765625 24.71879768371582,-22.319244384765625 c7.2468767166137695,0 13.600302696228027,2.2108685970306396 17.57119369506836,4.737575531005859 l-3.2759852409362793,10.001548767089844 c-2.7796237468719482,-1.89503014087677 -7.941782474517822,-4.421737194061279 -14.69229793548584,-4.421737194061279 c-7.643965244293213,0 -12.011946678161621,4.737575531005859 -12.011946678161621,10.317387580871582 c0,6.31676721572876 4.268708229064941,9.054033279418945 13.600302696228027,12.844093322753906 c12.409034729003906,5.053414344787598 18.762460708618164,11.580739974975586 18.762460708618164,22.95092010498047 c0,13.370491027832031 -9.728683471679688,22.7403621673584 -26.803516387939453,22.7403621673584 c-7.842510223388672,0 -15.089386940002441,-2.000309705734253 -20.152273178100586,-5.158693790435791 L207.56695556640625,129.02254182100296 z" id="svg_7"/>
			<path class="st0" d="M307.5342102050781,143.12999421358109 l-0.9927228093147278,-9.58043098449707 h-0.3970891237258911 c-3.970891237258911,6.00092887878418 -11.714129447937012,11.264901161193848 -21.93917465209961,11.264901161193848 c-14.493753433227539,0 -21.93917465209961,-10.843783378601074 -21.93917465209961,-21.792848587036133 c0,-18.31862449645996 15.387203216552734,-28.425453186035156 43.084171295166016,-28.214893341064453 V93.22752839326859 c0,-6.31676721572876 -1.5883564949035645,-17.581668853759766 -16.28065299987793,-17.581668853759766 c-6.651242733001709,0 -13.600302696228027,2.2108685970306396 -18.663188934326172,5.6850905418396 l-2.978168487548828,-9.054033279418945 c5.956336975097656,-4.105898857116699 14.493753433227539,-6.737885475158691 23.527530670166016,-6.737885475158691 c21.93917465209961,0 27.200605392456055,15.897198677062988 27.200605392456055,31.05743980407715 v28.425453186035156 c0,6.632606029510498 0.29781684279441833,13.054652214050293 1.1912673711776733,18.21334457397461 L307.5342102050781,143.12999421358109 L307.5342102050781,143.12999421358109 zM305.6480407714844,104.38715821504593 c-14.19593620300293,-0.31583839654922485 -30.278045654296875,2.316148042678833 -30.278045654296875,17.055273056030273 c0,8.948753356933594 5.658519744873047,13.159932136535645 12.309762001037598,13.159932136535645 c9.331594467163086,0 15.188658714294434,-6.31676721572876 17.27337646484375,-12.738814353942871 c0.3970891237258911,-1.3686327934265137 0.6949059367179871,-2.947824716567993 0.6949059367179871,-4.421737194061279 V104.38715821504593 z" id="svg_8"/>
			<path class="st0" d="M339.2020568847656,87.75298768281937 c0,-7.89595890045166 -0.09927228093147278,-14.31800651550293 -0.5956336855888367,-20.52949333190918 h11.416312217712402 l0.5956336855888367,12.212416648864746 h0.4963614046573639 c3.970891237258911,-7.264282703399658 10.6221342086792,-14.002167701721191 22.435535430908203,-14.002167701721191 c9.728683471679688,0 17.174104690551758,6.31676721572876 20.251544952392578,15.265522003173828 h0.29781684279441833 c2.183990240097046,-4.211178302764893 5.0628862380981445,-7.474841117858887 8.041054725646973,-9.896268844604492 c4.268708229064941,-3.47422194480896 9.033778190612793,-5.369251728057861 15.883564949035645,-5.369251728057861 c9.430866241455078,0 23.527530670166016,6.632606029510498 23.527530670166016,32.95246887207031 v44.743770599365234 h-12.706851959228516 v-42.95401382446289 c0,-14.633843421936035 -5.0628862380981445,-23.372039794921875 -15.486475944519043,-23.372039794921875 c-7.44542121887207,0 -13.203213691711426,5.790369987487793 -15.387203216552734,12.528254508972168 c-0.5956336855888367,1.89503014087677 -0.9927228093147278,4.421737194061279 -0.9927228093147278,6.94844388961792 v46.95463562011719 h-12.706851959228516 v-45.4807243347168 c0,-12.107137680053711 -5.0628862380981445,-20.8453311920166 -14.99011516571045,-20.8453311920166 c-8.140326499938965,0 -14.096663475036621,6.94844388961792 -16.082109451293945,13.791608810424805 c-0.6949059367179871,2.000309705734253 -0.9927228093147278,4.421737194061279 -0.9927228093147278,6.737885475158691 v45.79656219482422 H339.2020568847656 L339.2020568847656,87.75298768281937 L339.2020568847656,87.75298768281937 z" id="svg_9"/>
			<path class="st0" d="M477.1905212402344,45.85177308320999 c0.09927228093147278,4.737575531005859 -3.0774405002593994,8.422356605529785 -8.239599227905273,8.422356605529785 c-4.566524982452393,0 -7.842510223388672,-3.79006028175354 -7.842510223388672,-8.422356605529785 c0,-4.842854976654053 3.375257730484009,-8.632915496826172 8.140326499938965,-8.632915496826172 C474.0137939453125,37.21884614229202 477.1905212402344,41.00891190767288 477.1905212402344,45.85177308320999 zM462.5975036621094,143.12999421358109 v-75.90648651123047 h13.004669189453125 v75.90648651123047 H462.5975036621094 z" id="svg_10"/>
			<path class="st0" d="M546.0855102539062,131.44395905733109 h-0.29781684279441833 c-3.8716189861297607,7.58012056350708 -11.813401222229004,13.475770950317383 -23.3289852142334,13.475770950317383 c-16.67774200439453,0 -30.377317428588867,-15.370800018310547 -30.377317428588867,-38.427001953125 c0,-28.425453186035156 17.27337646484375,-40.95370864868164 32.362762451171875,-40.95370864868164 c11.118494987487793,0 18.464645385742188,5.790369987487793 22.0384464263916,13.159932136535645 h0.29781684279441833 l0.3970891237258911,-11.475460052490234 H559.5864868164062 c-0.29781684279441833,6.422046661376953 -0.3970891237258911,13.054652214050293 -0.3970891237258911,20.8453311920166 v86.11859893798828 h-13.004669189453125 L546.0855102539062,131.44395905733109 L546.0855102539062,131.44395905733109 zM546.0855102539062,97.96510773897171 c0,-1.89503014087677 -0.09927228093147278,-4.105898857116699 -0.5956336855888367,-5.790369987487793 c-1.8861733675003052,-8.422356605529785 -8.835232734680176,-15.686638832092285 -18.663188934326172,-15.686638832092285 c-13.501030921936035,0 -21.641357421875,12.107137680053711 -21.641357421875,29.16240882873535 c0,15.054962158203125 6.849787712097168,28.214893341064453 21.144994735717773,28.214893341064453 c8.438143730163574,0 15.685020446777344,-5.474531173706055 18.663188934326172,-15.054962158203125 c0.5956336855888367,-1.89503014087677 0.9927228093147278,-4.527016639709473 0.9927228093147278,-6.632606029510498 V97.96510773897171 z" id="svg_11"/>
		</g>
	</g>
</g><g id="svg_12" class="">
	<g id="svg_13">
		<g id="svg_14">
			<path class="st0" d="M607.9373016357422,61.69048881530762 c0,9.199999809265137 -7.300000190734863,16.5 -16.700000762939453,16.5 c-9.300000190734863,0 -16.799999237060547,-7.300000190734863 -16.799999237060547,-16.5 c0,-9 7.5,-16.299999237060547 16.799999237060547,-16.299999237060547 C600.6373138427734,45.39050102233887 607.9373016357422,52.69048881530762 607.9373016357422,61.69048881530762 zM578.6373138427734,61.69048881530762 c0,7.300000190734863 5.400000095367432,13 12.699999809265137,13 c7.199999809265137,0 12.399999618530273,-5.800000190734863 12.399999618530273,-12.899999618530273 c0,-7.300000190734863 -5.300000190734863,-13.100000381469727 -12.5,-13.100000381469727 S578.6373138427734,54.59051322937012 578.6373138427734,61.69048881530762 zM588.6373138427734,70.29049491882324 h-3.799999952316284 v-16.299999237060547 c1.5,-0.30000001192092896 3.5999999046325684,-0.5 6.300000190734863,-0.5 c3.0999999046325684,0 4.5,0.5 5.699999809265137,1.2000000476837158 c0.8999999761581421,0.699999988079071 1.600000023841858,2 1.600000023841858,3.5999999046325684 c0,1.7999999523162842 -1.399999976158142,3.200000047683716 -3.4000000953674316,3.799999952316284 v0.20000000298023224 c1.600000023841858,0.6000000238418579 2.5,1.7999999523162842 3,4 c0.5,2.5 0.800000011920929,3.5 1.2000000476837158,4.099999904632568 h-4.099999904632568 c-0.5,-0.6000000238418579 -0.800000011920929,-2.0999999046325684 -1.2999999523162842,-4 c-0.30000001192092896,-1.7999999523162842 -1.2999999523162842,-2.5999999046325684 -3.4000000953674316,-2.5999999046325684 h-1.7999999523162842 L588.6373138427734,70.29049491882324 L588.6373138427734,70.29049491882324 zM588.7372894287109,60.99050712585449 h1.7999999523162842 c2.0999999046325684,0 3.799999952316284,-0.699999988079071 3.799999952316284,-2.4000000953674316 c0,-1.5 -1.100000023841858,-2.5 -3.5,-2.5 c-1,0 -1.7000000476837158,0.10000000149011612 -2.0999999046325684,0.20000000298023224 V60.99050712585449 z" id="svg_15"/>
		</g>
	</g>
</g></g></svg>