<svg width="620" height="200" xmlns="http://www.w3.org/2000/svg" stroke="null" style="vector-effect: non-scaling-stroke;" preserveAspectRatio="xMidYMid meet">
 <metadata stroke="null" style="vector-effect: non-scaling-stroke;">Created by potrace 1.15, written by Peter Selinger 2001-2017</metadata>

 <g stroke="null">
  <title stroke="null">background</title>
  <rect stroke="null" fill="none" id="canvas_background" height="202" width="622" y="-1" x="-1"/>
 </g>
 <g stroke="null">
  <title stroke="null">Layer 1</title>
  <g stroke="null" id="svg_15">
   <path stroke="null" fill="#fc5252" id="svg_2" d="m372.545151,2.612334c-1.846406,0.894176 -3.834843,2.156541 -4.473984,2.840323l-1.065234,1.262366l-7.882733,-1.47276c-14.913279,-2.735126 -22.653981,-3.366309 -43.248508,-3.366309c-20.736559,0 -27.980152,0.578584 -43.674602,3.471506c-12.569764,2.314337 -23.080074,5.15466 -38.348431,10.519714c-7.101561,2.472133 -22.938043,9.835933 -28.619292,13.25484c-1.562343,0.894176 -4.189921,2.524731 -5.894296,3.471506c-5.894296,3.471506 -21.588746,15.569177 -27.127964,20.934232c-16.262575,15.83217 -27.341011,33.137101 -33.093276,51.756995c-2.556562,8.310574 -4.331952,18.725092 -4.331952,25.299913l0,4.628674l29.471479,0l29.471479,0l0,-8.152779l0,-8.152779l7.101561,0l7.101561,0l0,8.152779l0,8.152779l11.00742,0l11.00742,0l0,-8.152779l0,-8.152779l3.195703,0l3.195703,0l0,8.152779l0,8.152779l11.362498,0l11.362498,0l0,-8.152779l0,-8.152779l14.203123,0l14.203123,0l0,8.152779l0,8.152779l11.00742,0l11.00742,0l0,-8.152779l0,-8.152779l3.195703,0l3.124687,0l0.213047,7.994983l0.213047,8.047582l12.285701,0.157796c7.456639,0.052599 12.214685,-0.052599 12.214685,-0.36819c0,-0.262993 -0.568125,-2.103943 -1.207265,-4.102689c-1.491328,-4.470879 -1.633359,-16.410755 -0.284062,-20.934232c3.195703,-10.993102 10.013201,-20.145253 20.594528,-27.877243c6.107343,-4.41828 11.149451,-6.99561 19.600309,-10.046327c9.729139,-3.524104 18.606091,-5.049463 29.471479,-5.049463c13.137888,-0.052599 21.3757,1.314964 33.02226,5.365054c12.853826,4.523477 23.15109,11.78208 31.175854,21.933605l2.627578,3.31371l7.030546,0c3.905859,0 7.101561,-0.052599 7.101561,-0.157796c0,-0.157796 -2.698593,-6.048836 -4.971093,-10.835306c-2.698593,-5.680646 -11.220467,-17.620522 -17.256794,-24.405738c-8.166796,-9.046954 -12.924842,-13.307439 -23.506168,-21.197225c-9.87117,-7.311202 -15.836482,-10.993102 -25.352574,-15.726973l-5.965311,-2.892921l-0.071016,-3.576703c0,-2.366936 -0.568125,-4.365681 -1.633359,-6.206632l-1.562343,-2.682527l-3.550781,0.420789c-3.550781,0.420789 -8.805936,2.314337 -10.510311,3.839696c-0.781172,0.683781 -1.420312,0.578584 -5.255155,-0.788979c-4.758046,-1.630556 -4.758046,-1.630556 -6.533436,-5.365054c-1.13625,-2.419534 -5.752265,-6.680019 -7.172577,-6.680019c-0.426094,0 -2.201484,0.683781 -3.976874,1.525359zm15.410388,27.351258c11.149451,3.629301 14.203123,14.780199 5.82328,21.512816c-0.852187,0.683781 -2.982656,1.893549 -4.758046,2.629929c-2.698593,1.209767 -4.04789,1.420161 -8.521874,1.420161c-8.166796,-0.052599 -13.421951,-2.524731 -16.901716,-8.10018c-1.420312,-2.314337 -1.704375,-3.366309 -1.420312,-6.048836c1.065234,-9.678137 13.706013,-15.253586 25.778668,-11.41389z"/>
   <path stroke="null" fill="#fc5252" id="svg_3" d="m382.27429,42.672974c-3.408749,2.514015 -2.840625,6.389788 1.13625,7.908672c3.905859,1.518884 7.740702,0.628504 9.516092,-2.199763c2.201484,-3.456771 -0.852187,-6.965917 -6.036327,-6.965917c-2.130468,0 -3.337734,0.314252 -4.616015,1.257008z"/>
   <path stroke="null" id="svg_4" d="m277.739308,147.161723c-8.663905,2.356889 -14.203123,7.175418 -16.972732,14.769838c-1.562343,4.2424 -1.77539,16.131596 -0.355078,20.373997c3.053671,9.008554 10.581326,14.665088 21.872809,16.550599c11.433514,1.885511 24.003277,-0.314252 31.672963,-5.447033l1.917422,-1.361758l0,-10.108435l0,-10.108435l-13.848045,0l-13.848045,0l0,3.666272l0,3.666272l7.456639,0l7.456639,0l0,4.609028c0,3.928148 -0.213047,4.818529 -1.349297,5.551783c-2.130468,1.414133 -6.391405,2.356889 -10.652342,2.409264c-7.882733,0 -12.853826,-2.199763 -16.19156,-7.227793c-1.846406,-2.775892 -1.988437,-3.561521 -2.201484,-10.370312c-0.213047,-4.294776 0.071016,-8.537176 0.497109,-10.265561c1.77539,-6.337413 7.314608,-10.003685 14.984294,-10.05606c2.130468,-0.052375 4.758046,0.157126 5.82328,0.366627c3.266718,0.628504 6.746483,3.35202 8.024764,6.127912l1.207265,2.618766l6.249374,0l6.249374,0l-0.639141,-2.252138c-1.846406,-6.285038 -5.539218,-10.003685 -12.569764,-12.5177c-4.402968,-1.623635 -5.255155,-1.728385 -12.924842,-1.885511c-6.675468,-0.104751 -8.876952,0.052375 -11.859607,0.89038z"/>
   <path stroke="null" id="svg_5" d="m342.079453,146.952221c-4.616015,1.099882 -9.800155,3.771023 -12.285701,6.442163c-1.77539,1.833136 -2.201484,2.880642 -2.414531,5.91841c-0.426094,4.818529 0.994219,7.48967 5.468202,10.579813c4.118906,2.880642 6.817499,3.928148 16.19156,6.285038c12.569764,3.247269 15.05531,4.609028 15.623435,8.327675c0.639141,4.609028 -3.905859,7.227793 -12.356717,7.227793c-7.953749,0 -14.416169,-3.299645 -14.416169,-7.384919l0,-1.518884l-6.391405,0l-6.391405,0l0,1.937887c0,4.609028 5.681249,10.05606 13.066873,12.465324c10.155233,3.404395 25.210543,2.671141 32.809213,-1.571259c5.681249,-3.194894 8.166796,-9.846559 5.610233,-15.398342c-2.2725,-5.132781 -8.450858,-8.38005 -22.582965,-11.889196c-10.723358,-2.671141 -13.990076,-4.504277 -13.990076,-7.908672c0,-3.771023 3.550781,-6.232662 9.729139,-6.756415c7.385624,-0.680879 13.91906,2.199763 14.842263,6.546914l0.497109,2.147388l6.249374,0l6.32039,0l0,-1.571259c0,-2.56639 -2.769609,-7.123043 -5.610233,-9.322806c-1.491328,-1.099882 -4.616015,-2.723516 -6.888514,-3.561521c-3.763827,-1.361758 -5.042109,-1.518884 -12.001639,-1.623635c-5.326171,-0.104751 -8.876952,0.104751 -11.078436,0.628504z"/>
   <path stroke="null" id="svg_6" d="m134.784879,172.6685l0,25.978155l17.96695,-0.209501c19.955387,-0.157126 21.304684,-0.366627 27.127964,-4.13765c8.876952,-5.761284 7.456639,-18.226609 -2.556562,-21.840505c-1.704375,-0.628504 -2.769609,-1.152257 -2.2725,-1.152257c1.491328,0 5.894296,-3.194894 7.385624,-5.289907c0.923203,-1.414133 1.349297,-3.090143 1.349297,-5.604158c0,-7.018292 -5.468202,-11.679695 -15.339372,-13.146203c-2.2725,-0.314252 -10.581326,-0.576128 -18.890153,-0.576128l-14.771248,0l0,25.978155zm31.957026,-17.179103c1.349297,0.471378 2.840625,1.466509 3.337734,2.199763c1.420312,2.095013 1.13625,5.91841 -0.568125,7.542045c-2.627578,2.46164 -4.829062,2.933018 -13.421951,2.933018l-7.811717,0l0,-6.808791l0,-6.808791l8.024764,0c6.178358,0 8.521874,0.209501 10.439295,0.942756zm0.284062,20.740624c7.243593,2.199763 8.024764,10.422687 1.207265,13.512831c-2.201484,1.047506 -3.692812,1.204632 -11.220467,1.414133l-8.73492,0.157126l0,-7.908672l0,-7.908672l8.166796,0c5.397187,0 9.018983,0.261877 10.581326,0.733254z"/>
   <path stroke="null" id="svg_7" d="m195.858306,164.340825c0,10.422687 0.284062,18.959863 0.781172,20.89775c1.704375,7.123043 8.308827,12.046322 18.393044,13.617581c12.285701,1.937887 24.997496,-1.099882 30.181636,-7.123043c3.550781,-4.13765 3.905859,-6.546914 3.905859,-26.554284l0,-18.488485l-6.391405,0l-6.391405,0l0,18.174234c0,11.103566 -0.284062,19.012239 -0.781172,20.216871c-0.994219,2.671141 -4.473984,5.447033 -7.598671,6.127912c-5.539218,1.099882 -11.646561,0.366627 -14.984294,-1.780761c-3.834843,-2.514015 -3.976874,-3.247269 -4.189921,-23.778392l-0.213047,-18.959863l-6.391405,0l-6.32039,0l0,17.65048z"/>
   <path stroke="null" id="svg_8" d="m387.600461,172.616125l0,25.92578l23.435152,0l23.435152,0l0,-3.666272l0,-3.666272l-17.043747,0l-17.043747,0l0,-7.856297l0,-7.856297l14.558201,0l14.558201,0l0,-3.666272l0,-3.666272l-14.558201,0l-14.558201,0l0,-6.808791l0,-6.808791l16.688669,0l16.688669,0l0,-3.928148l0,-3.928148l-23.080074,0l-23.080074,0l0,25.92578z"/>
   <path stroke="null" id="svg_9" d="m442.99264,172.616125l0,25.92578l23.435152,0l23.435152,0l0,-3.666272l0,-3.666272l-16.688669,0l-16.688669,0l0,-7.856297l0,-7.856297l14.203123,0l14.203123,0l0,-3.666272l0,-3.666272l-14.203123,0l-14.203123,0l0,-6.808791l0,-6.808791l16.333591,0l16.333591,0l0,-3.928148l0,-3.928148l-23.080074,0l-23.080074,0l0,25.92578z"/>
  </g>
 </g>
</svg>