<svg version="1.1" xmlns="http://www.w3.org/2000/svg" xmlns:xlink="http://www.w3.org/1999/xlink" style="enable-background:new 0 0 603 103;" xml:space="preserve" width="620" height="200"><rect id="backgroundrect" width="100%" height="100%" x="0" y="0" fill="none" stroke="none" style="" class=""/>
<style type="text/css">
	.st0{fill:#0080FF;}
	.st1{fill-rule:evenodd;clip-rule:evenodd;fill:#0080FF;}
</style>

<g class="currentLayer" style=""><title>Layer 1</title><g id="XMLID_2369_" class="">
	<g id="XMLID_2638_">
		<g id="XMLID_2639_">
			<g id="svg_1">
				<g id="XMLID_44_">
					<g id="XMLID_48_">
						<path id="XMLID_49_" class="st0" d="M60.830158710479736,149.71904277801514 l0,-19.600000381469727 c20.799999237060547,0 36.79999923706055,-20.600000381469727 28.899999618530273,-42.400001525878906 C86.73016023635864,79.61905193328857 80.33015871047974,73.11905193328857 72.23016023635864,70.21905040740967 c-21.799999237060547,-7.900000095367432 -42.400001525878906,8.100000381469727 -42.400001525878906,28.899999618530273 c0,0 0,0 0,0 l-19.600000381469727,0 c0,-33.099998474121094 32,-58.900001525878906 66.69999694824219,-48.099998474121094 c15.199999809265137,4.699999809265137 27.200000762939453,16.799999237060547 31.899999618530273,31.899999618530273 C119.63016176223755,117.71904277801514 93.93015718460083,149.71904277801514 60.830158710479736,149.71904277801514 z"/>
					</g>
					<polygon id="XMLID_47_" class="st1" points="60.830158710479736,130.11905193328857 41.330158710479736,130.11905193328857 41.330158710479736,110.61905193328857 41.330158710479736,110.61905193328857 60.830158710479736,110.61905193328857 60.830158710479736,110.61905193328857 "/>
					<polygon id="XMLID_46_" class="st1" points="41.330158710479736,145.11905193328857 26.330158710479736,145.11905193328857 26.330158710479736,145.11905193328857 26.330158710479736,130.11905193328857 41.330158710479736,130.11905193328857 41.330158710479736,145.11905193328857 "/>
					<polygon id="XMLID_45_" class="st1" points="26.330158710479736,130.11905193328857 13.730158805847168,130.11905193328857 13.730158805847168,130.11905193328857 13.730158805847168,117.61905193328857 13.730158805847168,117.61905193328857 26.330158710479736,117.61905193328857 26.330158710479736,117.61905193328857 "/>
				</g>
			</g>
		</g>
	</g>
	<g id="XMLID_2370_">
		<path id="XMLID_2635_" class="st0" d="M190.2301526069641,77.81904888153076 c-5.800000190734863,-4 -13,-6.099999904632568 -21.399999618530273,-6.099999904632568 h-18.299999237060547 v58.099998474121094 h18.299999237060547 c8.399999618530273,0 15.600000381469727,-2.0999999046325684 21.399999618530273,-6.400000095367432 c3.200000047683716,-2.200000047683716 5.699999809265137,-5.400000095367432 7.400000095367432,-9.300000190734863 c1.7000000476837158,-3.9000000953674316 2.5999999046325684,-8.5 2.5999999046325684,-13.699999809265137 c0,-5.099999904632568 -0.8999999761581421,-9.699999809265137 -2.5999999046325684,-13.600000381469727 C195.9301495552063,83.01904582977295 193.4301495552063,79.91904735565186 190.2301526069641,77.81904888153076 zM161.2301526069641,81.61905193328857 h5.800000190734863 c6.400000095367432,0 11.699999809265137,1.2999999523162842 15.699999809265137,3.700000047683716 c4.400000095367432,2.700000047683716 6.699999809265137,7.800000190734863 6.699999809265137,15.100000381469727 c0,7.599999904632568 -2.299999952316284,12.899999618530273 -6.699999809265137,15.800000190734863 h0 c-3.799999952316284,2.5 -9.100000381469727,3.799999952316284 -15.600000381469727,3.799999952316284 h-5.800000190734863 V81.61905193328857 z"/>
		<path id="XMLID_2634_" class="st0" d="M213.03015565872192,71.01904582977295 c-1.7999999523162842,0 -3.299999952316284,0.6000000238418579 -4.5,1.7999999523162842 c-1.2000000476837158,1.2000000476837158 -1.899999976158142,2.700000047683716 -1.899999976158142,4.400000095367432 c0,1.7999999523162842 0.6000000238418579,3.299999952316284 1.899999976158142,4.5 c1.2000000476837158,1.2000000476837158 2.700000047683716,1.899999976158142 4.5,1.899999976158142 c1.7999999523162842,0 3.299999952316284,-0.6000000238418579 4.5,-1.899999976158142 c1.2000000476837158,-1.2000000476837158 1.899999976158142,-2.799999952316284 1.899999976158142,-4.5 c0,-1.7999999523162842 -0.6000000238418579,-3.299999952316284 -1.899999976158142,-4.400000095367432 C216.33015871047974,71.61905193328857 214.7301526069641,71.01904582977295 213.03015565872192,71.01904582977295 z"/>
		<rect id="XMLID_2564_" x="207.73015868663788" y="88.91904735565186" class="st0" width="10.300000190734863" height="41"/>
		<path id="XMLID_2561_" class="st0" d="M255.53015565872192,92.31904888153076 c-3.0999999046325684,-2.799999952316284 -6.599999904632568,-4.400000095367432 -10.300000190734863,-4.400000095367432 c-5.699999809265137,0 -10.399999618530273,2 -14.100000381469727,5.800000190734863 c-3.700000047683716,3.799999952316284 -5.5,8.800000190734863 -5.5,14.699999809265137 c0,5.800000190734863 1.7999999523162842,10.699999809265137 5.5,14.699999809265137 c3.700000047683716,3.799999952316284 8.399999618530273,5.800000190734863 14.100000381469727,5.800000190734863 c4,0 7.400000095367432,-1.100000023841858 10.199999809265137,-3.299999952316284 V126.61905193328857 c0,3.4000000953674316 -0.8999999761581421,6 -2.700000047683716,7.900000095367432 c-1.7999999523162842,1.7999999523162842 -4.300000190734863,2.700000047683716 -7.400000095367432,2.700000047683716 c-4.800000190734863,0 -7.699999809265137,-1.899999976158142 -11.399999618530273,-6.800000190734863 l-7,6.699999809265137 l0.20000000298023224,0.30000001192092896 c1.5,2.0999999046325684 3.799999952316284,4.199999809265137 6.900000095367432,6.199999809265137 c3.0999999046325684,2 6.900000095367432,3 11.5,3 c6.099999904632568,0 11.100000381469727,-1.899999976158142 14.699999809265137,-5.599999904632568 c3.700000047683716,-3.700000047683716 5.5,-8.699999809265137 5.5,-14.899999618530273 V88.91904735565186 h-10.100000381469727 V92.31904888153076 zM252.83015871047974,116.51904582977295 c-1.7999999523162842,2 -4.099999904632568,3 -7.099999904632568,3 c-3,0 -5.300000190734863,-1 -7,-3 c-1.7999999523162842,-2 -2.700000047683716,-4.699999809265137 -2.700000047683716,-8 c0,-3.299999952316284 0.8999999761581421,-6.099999904632568 2.700000047683716,-8.100000381469727 c1.7999999523162842,-2 4.099999904632568,-3.0999999046325684 7,-3.0999999046325684 c3,0 5.300000190734863,1 7.099999904632568,3.0999999046325684 c1.7999999523162842,2 2.700000047683716,4.800000190734863 2.700000047683716,8.100000381469727 C255.53015565872192,111.81904888153076 254.53015565872192,114.51904582977295 252.83015871047974,116.51904582977295 z"/>
		<rect id="XMLID_2560_" x="274.4301708936691" y="88.91904735565186" class="st0" width="10.300000190734863" height="41"/>
		<path id="XMLID_2552_" class="st0" d="M279.7301678657532,71.01904582977295 c-1.7999999523162842,0 -3.299999952316284,0.6000000238418579 -4.5,1.7999999523162842 c-1.2000000476837158,1.2000000476837158 -1.899999976158142,2.700000047683716 -1.899999976158142,4.400000095367432 c0,1.7999999523162842 0.6000000238418579,3.299999952316284 1.899999976158142,4.5 c1.2000000476837158,1.2000000476837158 2.700000047683716,1.899999976158142 4.5,1.899999976158142 c1.7999999523162842,0 3.299999952316284,-0.6000000238418579 4.5,-1.899999976158142 c1.2000000476837158,-1.2000000476837158 1.899999976158142,-2.799999952316284 1.899999976158142,-4.5 c0,-1.7999999523162842 -0.6000000238418579,-3.299999952316284 -1.899999976158142,-4.400000095367432 C283.0301556587219,71.61905193328857 281.4301800727844,71.01904582977295 279.7301678657532,71.01904582977295 z"/>
		<path id="XMLID_2509_" class="st0" d="M307.3301739692688,77.91904735565186 h-10.100000381469727 v11.100000381469727 h-5.900000095367432 v9.399999618530273 h5.900000095367432 v17 c0,5.300000190734863 1.100000023841858,9.100000381469727 3.200000047683716,11.300000190734863 c2.0999999046325684,2.200000047683716 5.800000190734863,3.299999952316284 11.100000381469727,3.299999952316284 c1.7000000476837158,0 3.4000000953674316,-0.10000000149011612 5,-0.20000000298023224 l0.5,0 v-9.399999618530273 l-3.5,0.20000000298023224 c-2.5,0 -4.099999904632568,-0.4000000059604645 -4.900000095367432,-1.2999999523162842 c-0.800000011920929,-0.8999999761581421 -1.2000000476837158,-2.700000047683716 -1.2000000476837158,-5.400000095367432 V98.31904888153076 h9.600000381469727 v-9.399999618530273 h-9.600000381469727 V77.91904735565186 z"/>
		<rect id="XMLID_2508_" x="365.2301586866379" y="71.71904850006104" class="st0" width="10.300000190734863" height="58.099998474121094"/>
		<path id="XMLID_2470_" class="st0" d="M479.63016176223755,115.21904277801514 c-1.7999999523162842,2.0999999046325684 -3.700000047683716,3.9000000953674316 -5.199999809265137,4.800000190734863 v0 c-1.399999976158142,0.8999999761581421 -3.200000047683716,1.399999976158142 -5.300000190734863,1.399999976158142 c-3,0 -5.5,-1.100000023841858 -7.5,-3.4000000953674316 c-2,-2.299999952316284 -3,-5.199999809265137 -3,-8.699999809265137 s1,-6.400000095367432 2.9000000953674316,-8.600000381469727 c2,-2.299999952316284 4.400000095367432,-3.4000000953674316 7.400000095367432,-3.4000000953674316 c3.299999952316284,0 6.800000190734863,2.0999999046325684 9.800000190734863,5.599999904632568 l6.800000190734863,-6.5 l0,0 c-4.400000095367432,-5.800000190734863 -10.100000381469727,-8.5 -16.899999618530273,-8.5 c-5.699999809265137,0 -10.600000381469727,2.0999999046325684 -14.600000381469727,6.099999904632568 c-4,4 -6,9.199999809265137 -6,15.300000190734863 s2,11.199999809265137 6,15.300000190734863 c4,4.099999904632568 8.899999618530273,6.099999904632568 14.600000381469727,6.099999904632568 c7.5,0 13.5,-3.200000047683716 17.5,-9.100000381469727 L479.63016176223755,115.21904277801514 z"/>
		<path id="XMLID_2460_" class="st0" d="M521.9301495552063,94.61905193328857 c-1.5,-2 -3.5,-3.700000047683716 -5.900000095367432,-4.900000095367432 c-2.5,-1.2000000476837158 -5.300000190734863,-1.7999999523162842 -8.5,-1.7999999523162842 c-5.800000190734863,0 -10.5,2.0999999046325684 -14,6.300000190734863 c-3.4000000953674316,4.199999809265137 -5.199999809265137,9.300000190734863 -5.199999809265137,15.399999618530273 c0,6.199999809265137 1.899999976158142,11.300000190734863 5.699999809265137,15.300000190734863 c3.700000047683716,3.9000000953674316 8.800000190734863,5.900000095367432 14.899999618530273,5.900000095367432 c6.900000095367432,0 12.699999809265137,-2.799999952316284 16.899999618530273,-8.399999618530273 l0.20000000298023224,-0.30000001192092896 l-6.699999809265137,-6.5 l0,0 c-0.6000000238418579,0.800000011920929 -1.5,1.600000023841858 -2.299999952316284,2.4000000953674316 c-1,1 -2,1.7000000476837158 -3,2.200000047683716 c-1.5,0.800000011920929 -3.299999952316284,1.100000023841858 -5.199999809265137,1.100000023841858 c-2.9000000953674316,0 -5.199999809265137,-0.800000011920929 -7,-2.5 c-1.7000000476837158,-1.5 -2.700000047683716,-3.5999999046325684 -2.9000000953674316,-6.199999809265137 h27.299999237060547 l0.10000000149011612,-3.799999952316284 c0,-2.700000047683716 -0.4000000059604645,-5.199999809265137 -1.100000023841858,-7.599999904632568 C524.5301251411438,98.91904735565186 523.4301495552063,96.71904277801514 521.9301495552063,94.61905193328857 zM499.4301800727844,104.31904888153076 c0.5,-2 1.399999976158142,-3.5999999046325684 2.700000047683716,-4.900000095367432 c1.399999976158142,-1.399999976158142 3.200000047683716,-2.0999999046325684 5.400000095367432,-2.0999999046325684 c2.5,0 4.400000095367432,0.699999988079071 5.699999809265137,2.0999999046325684 c1.2000000476837158,1.2999999523162842 1.899999976158142,2.9000000953674316 2.0999999046325684,4.800000190734863 H499.4301800727844 z"/>
		<path id="XMLID_2456_" class="st0" d="M561.5301251411438,92.01904582977295 L561.5301251411438,92.01904582977295 c-3.0999999046325684,-2.700000047683716 -7.400000095367432,-4 -12.800000190734863,-4 c-3.4000000953674316,0 -6.599999904632568,0.800000011920929 -9.5,2.200000047683716 c-2.700000047683716,1.399999976158142 -5.300000190734863,3.5999999046325684 -7,6.599999904632568 l0.10000000149011612,0.10000000149011612 l6.599999904632568,6.300000190734863 c2.700000047683716,-4.300000190734863 5.699999809265137,-5.800000190734863 9.699999809265137,-5.800000190734863 c2.200000047683716,0 3.9000000953674316,0.6000000238418579 5.300000190734863,1.7000000476837158 c1.399999976158142,1.100000023841858 2,2.5999999046325684 2,4.400000095367432 v2 c-2.5999999046325684,-0.800000011920929 -5.099999904632568,-1.2000000476837158 -7.599999904632568,-1.2000000476837158 c-5.099999904632568,0 -9.300000190734863,1.2000000476837158 -12.399999618530273,3.5999999046325684 c-3.0999999046325684,2.4000000953674316 -4.699999809265137,5.900000095367432 -4.699999809265137,10.199999809265137 c0,3.799999952316284 1.2999999523162842,7 4,9.300000190734863 c2.700000047683716,2.200000047683716 6,3.4000000953674316 9.899999618530273,3.4000000953674316 c3.9000000953674316,0 7.599999904632568,-1.600000023841858 10.899999618530273,-4.300000190734863 v3.4000000953674316 h10.100000381469727 V103.51904582977295 C566.3301129341125,98.61905193328857 564.730137348175,94.71904277801514 561.5301251411438,92.01904582977295 zM543.230137348175,114.21904277801514 c1.2000000476837158,-0.800000011920929 2.799999952316284,-1.2000000476837158 4.900000095367432,-1.2000000476837158 c2.5,0 5.099999904632568,0.5 7.800000190734863,1.5 v4 C553.730137348175,120.61905193328857 550.730137348175,121.61905193328857 547.0301251411438,121.61905193328857 c-1.7999999523162842,0 -3.200000047683716,-0.4000000059604645 -4.099999904632568,-1.2000000476837158 c-0.8999999761581421,-0.800000011920929 -1.399999976158142,-1.7000000476837158 -1.399999976158142,-3 C541.5301251411438,116.11905193328857 542.1301617622375,115.01904582977295 543.230137348175,114.21904277801514 z"/>
		<path id="XMLID_2454_" class="st0" d="M605.9301495552063,92.81904888153076 c-2.9000000953674316,-3.200000047683716 -6.900000095367432,-4.800000190734863 -12,-4.800000190734863 c-4.099999904632568,0 -7.400000095367432,1.2000000476837158 -9.899999618530273,3.5 v-2.5 h-10.100000381469727 v41 h10.300000190734863 V107.31904888153076 c0,-3.0999999046325684 0.699999988079071,-5.599999904632568 2.200000047683716,-7.300000190734863 c1.5,-1.7999999523162842 3.4000000953674316,-2.5999999046325684 6.099999904632568,-2.5999999046325684 c2.299999952316284,0 4.099999904632568,0.800000011920929 5.400000095367432,2.299999952316284 c1.2999999523162842,1.600000023841858 2,3.700000047683716 2,6.400000095367432 v23.700000762939453 h10.300000190734863 V106.11905193328857 C610.230137348175,100.51904582977295 608.8301129341125,96.01904582977295 605.9301495552063,92.81904888153076 z"/>
		<path id="XMLID_2450_" class="st0" d="M352.3301739692688,92.01904582977295 L352.3301739692688,92.01904582977295 c-3.0999999046325684,-2.700000047683716 -7.400000095367432,-4 -12.800000190734863,-4 c-3.4000000953674316,0 -6.599999904632568,0.800000011920929 -9.5,2.200000047683716 c-2.700000047683716,1.399999976158142 -5.300000190734863,3.5999999046325684 -7,6.599999904632568 l0.10000000149011612,0.10000000149011612 l6.599999904632568,6.300000190734863 c2.700000047683716,-4.300000190734863 5.699999809265137,-5.800000190734863 9.699999809265137,-5.800000190734863 c2.200000047683716,0 3.9000000953674316,0.6000000238418579 5.300000190734863,1.7000000476837158 c1.399999976158142,1.100000023841858 2,2.5999999046325684 2,4.400000095367432 v2 c-2.5999999046325684,-0.800000011920929 -5.099999904632568,-1.2000000476837158 -7.599999904632568,-1.2000000476837158 c-5.099999904632568,0 -9.300000190734863,1.2000000476837158 -12.399999618530273,3.5999999046325684 c-3.0999999046325684,2.4000000953674316 -4.699999809265137,5.900000095367432 -4.699999809265137,10.199999809265137 c0,3.799999952316284 1.2999999523162842,7 4,9.300000190734863 c2.700000047683716,2.200000047683716 6,3.4000000953674316 9.899999618530273,3.4000000953674316 c3.9000000953674316,0 7.599999904632568,-1.600000023841858 10.899999618530273,-4.300000190734863 v3.4000000953674316 h10.100000381469727 V103.51904582977295 C357.0301556587219,98.61905193328857 355.4301800727844,94.71904277801514 352.3301739692688,92.01904582977295 zM334.0301556587219,114.21904277801514 c1.2000000476837158,-0.800000011920929 2.799999952316284,-1.2000000476837158 4.900000095367432,-1.2000000476837158 c2.5,0 5.099999904632568,0.5 7.800000190734863,1.5 v4 c-2.200000047683716,2.0999999046325684 -5.199999809265137,3.0999999046325684 -8.899999618530273,3.0999999046325684 c-1.7999999523162842,0 -3.200000047683716,-0.4000000059604645 -4.099999904632568,-1.2000000476837158 c-0.8999999761581421,-0.800000011920929 -1.399999976158142,-1.7000000476837158 -1.399999976158142,-3 C332.3301739692688,116.11905193328857 332.8301739692688,115.01904582977295 334.0301556587219,114.21904277801514 z"/>
		<path id="XMLID_2371_" class="st0" d="M412.9301800727844,130.71904277801514 c-16.5,0 -30,-13.399999618530273 -30,-30 s13.399999618530273,-30 30,-30 c16.5,0 30,13.399999618530273 30,30 S429.4301800727844,130.71904277801514 412.9301800727844,130.71904277801514 zM412.9301800727844,81.41904735565186 c-10.699999809265137,0 -19.399999618530273,8.699999809265137 -19.399999618530273,19.399999618530273 s8.699999809265137,19.399999618530273 19.399999618530273,19.399999618530273 c10.699999809265137,0 19.399999618530273,-8.699999809265137 19.399999618530273,-19.399999618530273 S423.63016176223755,81.41904735565186 412.9301800727844,81.41904735565186 z"/>
	</g>
</g></g></svg>