<svg xmlns:dc="http://purl.org/dc/elements/1.1/" xmlns:cc="http://creativecommons.org/ns#" xmlns:rdf="http://www.w3.org/1999/02/22-rdf-syntax-ns#" xmlns:svg="http://www.w3.org/2000/svg" xmlns="http://www.w3.org/2000/svg" xmlns:sodipodi="http://sodipodi.sourceforge.net/DTD/sodipodi-0.dtd" xmlns:inkscape="http://www.inkscape.org/namespaces/inkscape" version="1.1" sodipodi:docname="hasura-ar21.svg" width="620" height="200" inkscape:version="0.92.3 (2405546, 2018-03-11)"><rect id="backgroundrect" width="100%" height="100%" x="0" y="0" fill="none" stroke="none" style="" class=""/>
  <metadata id="metadata19">
    <rdf:RDF>
      <cc:Work rdf:about="">
        <dc:format>image/svg+xml</dc:format>
        <dc:type rdf:resource="http://purl.org/dc/dcmitype/StillImage"/>
        <dc:title>Asset 1</dc:title>
      </cc:Work>
    </rdf:RDF>
  </metadata>
  <defs id="defs17"/>
  <sodipodi:namedview pagecolor="#ffffff" bordercolor="#666666" borderopacity="1" objecttolerance="10" gridtolerance="10" guidetolerance="10" inkscape:pageopacity="0" inkscape:pageshadow="2" inkscape:window-width="1920" inkscape:window-height="1001" id="namedview15" showgrid="false" inkscape:zoom="3.4591837" inkscape:cx="13.731563" inkscape:cy="12" inkscape:window-x="-9" inkscape:window-y="-9" inkscape:window-maximized="1" inkscape:current-layer="Layer_1"/>
  <style id="style2">.st0{fill:#fff}.st1{fill:#ffc627}.st2{fill:#232323}</style>
  <title id="title4">Asset 1</title>
  
<g class="currentLayer" style=""><title>Layer 1</title><g id="g842" class="">
    <g id="g833">
      <g id="Layer_2" style="fill:#4d4d4d;fill-opacity:1">
        <path id="Layer_1-2" class="st0" d="m247.79252195358276,62.94494962692261 h14.32855224609375 v36.43265151977539 h17.51267433166504 v-36.43265151977539 h14.32855224609375 v85.31696319580078 h-14.85923957824707 v-37.816165924072266 h-16.98198890686035 v37.816165924072266 h-14.32855224609375 zm75.35757446289062,0 h11.675116539001465 l21.75817108154297,85.31696319580078 h-14.32855224609375 l-4.245497226715088,-18.44691276550293 h-19.104736328125 l-4.245497226715088,18.44691276550293 h-13.797863960266113 zm5.837558269500732,24.44215965270996 l-6.898931980133057,30.898574829101562 h14.32855224609375 zm80.66443634033203,0 h-14.32855224609375 v-2.7670366764068604 c0,-2.7670366764068604 -0.530687153339386,-5.072900772094727 -2.122748613357544,-7.3787641525268555 c-1.5920614004135132,-2.305864095687866 -4.77618408203125,-3.2282094955444336 -7.429619789123535,-3.2282094955444336 c-1.5920614004135132,0 -3.1841228008270264,0.46117275953292847 -4.77618408203125,0.9223455190658569 c-1.061374306678772,0.46117275953292847 -2.122748613357544,1.3835183382034302 -2.653435468673706,2.305864095687866 c-0.530687153339386,0.9223455190658569 -1.061374306678772,2.305864095687866 -1.5920614004135132,3.6893820762634277 c-0.530687153339386,1.3835183382034302 -0.530687153339386,2.7670366764068604 -0.530687153339386,4.15055513381958 v4.15055513381958 c0,0.9223455190658569 0.530687153339386,1.8446910381317139 1.061374306678772,2.7670366764068604 c0.530687153339386,0.9223455190658569 1.5920614004135132,1.8446910381317139 2.653435468673706,2.305864095687866 c1.5920614004135132,0.9223455190658569 2.653435468673706,1.3835183382034302 4.245497226715088,1.8446910381317139 l10.613741874694824,3.6893820762634277 c2.653435468673706,0.9223455190658569 5.306870937347412,2.305864095687866 7.429619789123535,3.6893820762634277 c2.122748613357544,1.3835183382034302 3.7148098945617676,3.2282094955444336 4.77618408203125,5.072900772094727 c1.061374306678772,1.8446910381317139 1.5920614004135132,4.15055513381958 2.122748613357544,6.456418991088867 c0.530687153339386,2.7670366764068604 0.530687153339386,5.534073352813721 0.530687153339386,8.30111026763916 c0,3.2282094955444336 -0.530687153339386,6.917591571807861 -1.061374306678772,10.145801544189453 c-0.530687153339386,2.7670366764068604 -2.122748613357544,5.534073352813721 -4.245497226715088,7.839937210083008 c-2.122748613357544,2.305864095687866 -4.77618408203125,4.15055513381958 -7.429619789123535,5.072900772094727 c-3.7148098945617676,1.3835183382034302 -7.429619789123535,1.8446910381317139 -11.675116539001465,1.8446910381317139 c-3.1841228008270264,0 -6.368245601654053,-0.46117275953292847 -9.5523681640625,-1.3835183382034302 c-5.837558269500732,-1.8446910381317139 -10.083054542541504,-5.995245933532715 -12.736491203308105,-10.606973648071289 c-1.061374306678772,-2.305864095687866 -2.122748613357544,-5.072900772094727 -2.122748613357544,-7.839937210083008 v-4.611728191375732 h14.32855224609375 v3.6893820762634277 c0,2.305864095687866 0.530687153339386,4.15055513381958 2.122748613357544,5.995245933532715 c2.122748613357544,1.8446910381317139 4.77618408203125,2.7670366764068604 7.960306167602539,2.7670366764068604 c2.122748613357544,0 3.7148098945617676,0 5.837558269500732,-0.9223455190658569 c1.061374306678772,-0.46117275953292847 2.122748613357544,-1.3835183382034302 3.1841228008270264,-2.7670366764068604 c0.530687153339386,-1.3835183382034302 1.061374306678772,-2.7670366764068604 1.061374306678772,-4.15055513381958 v-10.606973648071289 c0,-1.3835183382034302 -0.530687153339386,-2.305864095687866 -1.061374306678772,-3.6893820762634277 c-0.530687153339386,-0.9223455190658569 -1.5920614004135132,-1.8446910381317139 -2.653435468673706,-2.305864095687866 c-1.5920614004135132,-0.46117275953292847 -2.653435468673706,-1.3835183382034302 -4.245497226715088,-1.8446910381317139 l-10.083054542541504,-3.6893820762634277 c-5.306870937347412,-1.3835183382034302 -9.5523681640625,-4.611728191375732 -12.205802917480469,-8.30111026763916 c-2.122748613357544,-4.15055513381958 -3.1841228008270264,-8.762283325195312 -3.1841228008270264,-13.374011039733887 c0,-3.2282094955444336 0.530687153339386,-6.456418991088867 1.5920614004135132,-9.223456382751465 c1.061374306678772,-2.7670366764068604 2.653435468673706,-5.072900772094727 4.77618408203125,-7.3787641525268555 c2.122748613357544,-2.305864095687866 4.77618408203125,-3.6893820762634277 7.429619789123535,-5.072900772094727 c3.1841228008270264,-1.3835183382034302 6.898931980133057,-1.8446910381317139 10.613741874694824,-1.8446910381317139 c3.1841228008270264,0 6.368245601654053,0.46117275953292847 9.5523681640625,1.8446910381317139 c2.653435468673706,0.9223455190658569 5.306870937347412,2.7670366764068604 7.429619789123535,4.611728191375732 c2.122748613357544,1.8446910381317139 3.7148098945617676,3.6893820762634277 4.77618408203125,5.995245933532715 c1.061374306678772,2.305864095687866 1.5920614004135132,4.611728191375732 1.5920614004135132,6.917591571807861 zm56.78351974487305,41.96672439575195 c0,2.7670366764068604 -0.530687153339386,5.534073352813721 -1.5920614004135132,7.839937210083008 c-2.122748613357544,4.611728191375732 -6.898931980133057,8.762283325195312 -12.205802917480469,10.606973648071289 c-5.837558269500732,2.305864095687866 -12.205802917480469,2.305864095687866 -17.51267433166504,0 c-5.306870937347412,-1.8446910381317139 -9.5523681640625,-5.995245933532715 -12.205802917480469,-10.606973648071289 c-1.061374306678772,-2.305864095687866 -1.5920614004135132,-5.072900772094727 -1.5920614004135132,-7.839937210083008 v-66.40888214111328 h14.32855224609375 v65.0253677368164 c0,2.305864095687866 0.530687153339386,5.072900772094727 2.653435468673706,6.917591571807861 c3.7148098945617676,2.7670366764068604 9.021681785583496,2.7670366764068604 12.205802917480469,0 c1.5920614004135132,-1.8446910381317139 2.653435468673706,-4.15055513381958 2.653435468673706,-6.917591571807861 v-65.0253677368164 h14.32855224609375 zm13.797863960266113,-66.40888214111328 h22.81954574584961 c16.4512996673584,0 24.942293167114258,8.30111026763916 24.942293167114258,24.903329849243164 c0,4.15055513381958 -1.061374306678772,8.762283325195312 -2.653435468673706,12.912837982177734 c-2.122748613357544,3.6893820762634277 -5.306870937347412,6.917591571807861 -9.5523681640625,8.762283325195312 l15.389927864074707,39.19968795776367 h-14.85923957824707 l-13.267178535461426,-36.43265151977539 h-8.490994453430176 v36.43265151977539 h-14.32855224609375 zm14.32855224609375,38.277339935302734 h7.960306167602539 c2.122748613357544,0 4.245497226715088,-0.46117275953292847 5.837558269500732,-0.9223455190658569 c1.5920614004135132,-0.46117275953292847 2.653435468673706,-1.3835183382034302 3.1841228008270264,-2.7670366764068604 c1.061374306678772,-1.3835183382034302 1.5920614004135132,-2.7670366764068604 1.5920614004135132,-4.15055513381958 c0.530687153339386,-1.8446910381317139 0.530687153339386,-3.6893820762634277 0.530687153339386,-5.534073352813721 c0,-1.8446910381317139 0,-3.6893820762634277 -0.530687153339386,-5.534073352813721 c0,-1.3835183382034302 -1.061374306678772,-2.7670366764068604 -1.5920614004135132,-4.15055513381958 c-1.061374306678772,-1.3835183382034302 -2.122748613357544,-1.8446910381317139 -3.7148098945617676,-2.7670366764068604 c-2.122748613357544,-0.46117275953292847 -4.245497226715088,-0.9223455190658569 -6.368245601654053,-0.9223455190658569 h-7.429619789123535 v26.748022079467773 zm61.02901840209961,-38.277339935302734 h11.675116539001465 l21.75817108154297,85.31696319580078 h-13.797863960266113 l-4.245497226715088,-18.44691276550293 h-19.104736328125 l-4.245497226715088,18.44691276550293 h-14.32855224609375 zm5.837558269500732,24.44215965270996 l-6.898931980133057,30.898574829101562 h13.797863960266113 z" style="fill:#4d4d4d;fill-opacity:1" inkscape:connector-curvature="0"/>
      </g>
    </g>
    <g id="g829">
      <circle class="st1" cx="-50.45142924785614" cy="118.64344924688339" r="8" id="circle8" style="fill:#ffc627" transform="matrix(8.56179, 0, 0, 7.44029, 552.745, -765.771)" stroke-width="0"/>
      <path class="st2" d="m148.1882128715515,134.82715940475464 l-25.685367584228516,-43.8976936340332 c-2.5685369968414307,-3.7201433181762695 -7.705610752105713,-5.208200931549072 -11.986505508422852,-3.7201433181762695 c-4.280894756317139,2.232086181640625 -5.993252754211426,6.696258544921875 -4.280894756317139,10.416401863098145 l11.130326271057129,17.856689453125 l-18.8359375,16.368629455566406 c-3.424715757369995,2.9761147499084473 -3.424715757369995,8.184314727783203 0,11.160429954528809 c1.7123578786849976,1.4880573749542236 4.280894756317139,2.232086181640625 5.993252754211426,2.232086181640625 c2.5685369968414307,0 4.280894756317139,-0.7440286874771118 5.993252754211426,-2.232086181640625 l15.411221504211426,-13.39251708984375 l5.993252754211426,11.160429954528809 c1.7123578786849976,2.9761147499084473 5.137073993682861,4.46417236328125 7.705610752105713,4.46417236328125 c1.7123578786849976,0 2.5685369968414307,0 4.280894756317139,-0.7440286874771118 c5.137073993682861,-0.7440286874771118 6.84943151473999,-5.208200931549072 4.280894756317139,-9.672372817993164 " id="path10" inkscape:connector-curvature="0" style="fill:#232323" stroke-width="0"/>
      <path class="st2" d="m182.435405254364,13.550506114959717 c-5.137073993682861,2.9761147499084473 3.424715757369995,28.273090362548828 -17.123579025268555,43.8976936340332 c-12.842683792114258,-7.440286636352539 -28.253904342651367,-11.904458999633789 -44.521305084228516,-11.904458999633789 c-16.26740074157715,0 -31.67862319946289,4.46417236328125 -44.521305084228516,11.160429954528809 c-20.548295974731445,-14.880573272705078 -11.986505508422852,-40.92157745361328 -17.123579025268555,-43.8976936340332 c-8.561789512634277,-4.46417236328125 -23.973011016845703,22.320859909057617 -22.260652542114258,38.689491271972656 c0.8561789393424988,8.9283447265625 3.424715757369995,22.320859909057617 11.130326271057129,32.73725891113281 c-5.993252754211426,9.672372817993164 -8.561789512634277,20.088773727416992 -8.561789512634277,31.993234634399414 c0,39.43352127075195 36.815696716308594,71.4267578125 82.19318389892578,71.4267578125 c45.37748718261719,0 82.19318389892578,-31.993234634399414 82.19318389892578,-71.4267578125 c0,-11.160429954528809 -3.424715757369995,-22.320859909057617 -8.561789512634277,-31.993234634399414 c7.705610752105713,-10.416401863098145 10.274147987365723,-23.808917999267578 11.130326271057129,-32.73725891113281 c0,-16.368629455566406 -15.411221504211426,-42.409637451171875 -23.973011016845703,-37.94546127319336 m-61.6448860168457,158.47808837890625 c-35.10334014892578,0 -63.35724639892578,-24.552947998046875 -63.35724639892578,-55.802146911621094 c0,-30.50517463684082 28.253904342651367,-55.05812072753906 63.35724639892578,-55.05812072753906 c35.10334014892578,0 64.21341705322266,24.552947998046875 64.21341705322266,55.05812072753906 c0,31.24919891357422 -29.110084533691406,55.802146911621094 -64.21341705322266,55.802146911621094 " id="path12" inkscape:connector-curvature="0" style="fill:#232323" stroke-width="0"/>
    </g>
  </g></g></svg>